<?xml version="1.0" encoding="iso-8859-1"?>
<!-- Generator: Adobe Illustrator 18.1.1, SVG Export Plug-In . SVG Version: 6.00 Build 0)  -->
<svg version="1.1" id="Capa_1" xmlns="http://www.w3.org/2000/svg" xmlns:xlink="http://www.w3.org/1999/xlink" x="0px" y="0px"
	 viewBox="0 0 207.398 207.398" style="enable-background:new 0 0 207.398 207.398;" xml:space="preserve">
<g>
	<g>
		<path style="fill:#010002;" d="M207.398,56.079v-2.416h-78.52v-6.8h-2.416v6.8h-67.01v2.416h67.01v15.994H109.32
			c-11.678,0-21.09,4.699-27.246,13.596H35.177c-2.613-7.161-9.416-11.943-17.035-11.943C8.138,73.726,0,81.864,0,91.867
			c0,9.999,8.138,18.138,18.141,18.138c5.601,0,10.955-2.659,14.391-7.125l41.708,7.383c-0.165,2.094-0.251,4.026-0.251,5.887
			c0,23.86,13.578,33.154,48.436,33.154h19.684c28.416,0,44.07-11.774,44.07-33.154c0-24.415-28.885-44.077-52.806-44.077h-4.491
			V56.079C128.882,56.079,207.398,56.079,207.398,56.079z M33.967,100.689c1.517-2.706,2.312-5.74,2.312-8.818
			c0-1.242-0.129-2.487-0.412-3.783h47.495l0.351-0.54c5.766-8.661,14.376-13.056,25.607-13.056h20.954
			c-1.764,5.93-7.805,28.788,0.301,40.978c3.042,4.574,7.727,7.136,13.915,7.598c8.4,0.644,16.062,0.963,22.783,0.963
			c9.176,0,14.043-0.594,15.768-0.859c-3.879,19.587-24.347,23.724-40.938,23.724h-19.684c-33.548,0-46.017-8.332-46.017-30.739
			c0-2.126,0.107-4.345,0.329-6.771l0.104-1.109L33.967,100.689z M167.104,121.6c-6.671,0-14.219-0.319-22.432-0.945
			c-5.411-0.404-9.47-2.605-12.075-6.528c-7.77-11.681-1.027-35.559,0.211-39.639h0.562c22.826,0,50.39,18.581,50.39,41.661
			c0,1.478-0.1,2.938-0.304,4.499l-0.175,0.036C182.754,120.777,177.858,121.597,167.104,121.6z M18.138,76.142
			c6.249,0,11.968,3.804,14.43,9.527h-5.622c-0.802,0-1.582-0.018-2.344-0.029c-0.73-0.014-1.432-0.021-2.108-0.021
			c-4.402,0-9.105,0.54-9.105,7.065c0,2.523,1.578,5.59,13.346,9.176l3.067,0.544c-2.988,3.307-7.193,5.193-11.663,5.193
			c-8.664,0-15.725-7.054-15.725-15.725C2.412,83.196,9.473,76.142,18.138,76.142z M22.497,88.031c0.558,0,1.142,0.014,1.739,0.021
			l0.322,0.004c0.769,0.011,1.571,0.029,2.391,0.029h6.446c0.311,1.267,0.469,2.534,0.469,3.783c0,2.974-0.83,5.859-2.423,8.375
			l-4.141-0.734c-11.499-3.511-11.499-6.009-11.499-6.828C15.801,88.679,17.78,88.031,22.497,88.031z"/>
		<path style="fill:#010002;" d="M178.141,145.679c-0.63-0.179-1.303,0.193-1.489,0.83c-0.036,0.115-3.436,11.606-15.174,11.606
			H83.219c-0.666,0-1.21,0.54-1.21,1.21c0,0.669,0.544,1.21,1.21,1.21h78.259c13.188,0,17.325-12.794,17.501-13.356
			C179.154,146.538,178.785,145.869,178.141,145.679z"/>
	</g>
</g>
<g>
</g>
<g>
</g>
<g>
</g>
<g>
</g>
<g>
</g>
<g>
</g>
<g>
</g>
<g>
</g>
<g>
</g>
<g>
</g>
<g>
</g>
<g>
</g>
<g>
</g>
<g>
</g>
<g>
</g>
</svg>
